{
    "asset" : {
        "generator" : "Khronos glTF Blender I/O v1.2.20",
        "version" : "2.0"
    },
    "scene" : 0,
    "scenes" : [
        {
            "name" : "Scene",
            "nodes" : [
                0
            ]
        }
    ],
    "nodes" : [
        {
            "mesh" : 0,
            "name" : "Cube",
            "scale" : [
                0.5,
                0.5,
                0.5
            ]
        }
    ],
    "materials" : [
        {
            "name" : "Material.001",
            "pbrMetallicRoughness" : {
                "baseColorTexture" : {
                    "texCoord" : 0,
                    "index" : 0
                }
            }
        }
    ],
    "meshes" : [
        {
            "name" : "Cube.001",
            "primitives" : [
                {
                    "attributes" : {
                        "POSITION" : 0,
                        "TEXCOORD_0" : 1,
                        "NORMAL" : 2
                    },
                    "indices" : 3,
                    "material" : 0
                }
            ]
        }
    ],
    "textures" : [
        {
            "source" : 0,
            "sampler" : 0
        }
    ],
    "images" : [
        {
            "name" : "cube.png",
            "uri" : "cube_png.png",
            "mimeType" : "image/png"
        }
    ],
    "accessors" : [
        {
            "min" : [
                -1,
                -1,
                -1
            ],
            "componentType" : 5126,
            "type" : "VEC3",
            "bufferView" : 0,
            "max" : [
                1,
                1,
                1
            ],
            "count" : 24
        },
        {
            "bufferView" : 1,
            "componentType" : 5126,
            "type" : "VEC2",
            "count" : 24
        },
        {
            "bufferView" : 2,
            "componentType" : 5126,
            "type" : "VEC3",
            "count" : 24
        },
        {
            "bufferView" : 3,
            "componentType" : 5123,
            "type" : "SCALAR",
            "count" : 36
        }
    ],
    "bufferViews" : [
        {
            "byteLength" : 288,
            "byteOffset" : 0,
            "buffer" : 0
        },
        {
            "byteLength" : 192,
            "byteOffset" : 288,
            "buffer" : 0
        },
        {
            "byteLength" : 288,
            "byteOffset" : 480,
            "buffer" : 0
        },
        {
            "byteLength" : 72,
            "byteOffset" : 768,
            "buffer" : 0
        }
    ],
    "samplers" : [
        {
            "magFilter" : 9729,
            "wrapS" : 10497,
            "minFilter" : 9986,
            "wrapT" : 10497
        }
    ],
    "buffers" : [
        {
            "byteLength" : 840,
            "uri" : "model.bin"
        }
    ]
}
